<?xml version="1.0" encoding="iso-8859-1"?>
<!-- Generator: Adobe Illustrator 19.0.0, SVG Export Plug-In . SVG Version: 6.00 Build 0)  -->
<svg version="1.1" id="Capa_1" xmlns="http://www.w3.org/2000/svg" xmlns:xlink="http://www.w3.org/1999/xlink" x="0px" y="0px"
	 viewBox="0 0 310 310" style="enable-background:new 0 0 310 310;" xml:space="preserve">
<g id="XMLID_1003_">
	<g id="XMLID_1004_">
		<rect id="XMLID_1005_" x="15" y="50" style="fill:#78B9EB;" width="280" height="260"/>
		<rect id="XMLID_1006_" x="15" y="29.998" style="fill:#0052B4;" width="140" height="70"/>
		<rect id="XMLID_1007_" x="155" y="29.998" style="fill:#006DF0;" width="140" height="70"/>
		<g id="XMLID_1008_">
			<rect id="XMLID_1009_" x="65" y="190" style="fill:#FFFFFF;" width="30" height="30"/>
			<rect id="XMLID_1010_" x="165" y="190" style="fill:#006DF0;" width="30" height="30"/>
			<rect id="XMLID_1011_" x="115" y="190" style="fill:#FFFFFF;" width="30" height="30"/>
			<rect id="XMLID_1012_" x="215" y="190" style="fill:#FFFFFF;" width="30" height="30"/>
		</g>
		<rect id="XMLID_58_" x="215" y="130" style="fill:#FFFFFF;" width="30" height="30"/>
		<rect id="XMLID_57_" x="115" y="130" style="fill:#FFFFFF;" width="30" height="30"/>
		<rect id="XMLID_56_" x="165" y="130" style="fill:#FFFFFF;" width="30" height="30"/>
		<rect id="XMLID_55_" x="65" y="130" style="fill:#006DF0;" width="30" height="30"/>
		<rect id="XMLID_54_" x="215" y="250" style="fill:#FFFFFF;" width="30" height="30"/>
		<rect id="XMLID_53_" x="115" y="250" style="fill:#006DF0;" width="30" height="30"/>
		<rect id="XMLID_52_" x="165" y="250" style="fill:#FFFFFF;" width="30" height="30"/>
		<rect id="XMLID_51_" x="65" y="250" style="fill:#FFFFFF;" width="30" height="30"/>
		<rect id="XMLID_50_" x="215.001" style="fill:#003778;" width="30" height="60"/>
		<rect id="XMLID_49_" x="65.002" style="fill:#003778;" width="30" height="60"/>
	</g>
	<rect id="XMLID_1013_" x="15" y="50" style="fill:#78B9EB;" width="280" height="260"/>
	<rect id="XMLID_1014_" x="15" y="29.998" style="fill:#0052B4;" width="140" height="70"/>
	<rect id="XMLID_1015_" x="155" y="29.998" style="fill:#006DF0;" width="140" height="70"/>
	<rect id="XMLID_1016_" x="65" y="190" style="fill:#FFFFFF;" width="30" height="30"/>
	<rect id="XMLID_1017_" x="165" y="190" style="fill:#FFDA44;" width="30" height="30"/>
	<rect id="XMLID_1018_" x="115" y="190" style="fill:#FFFFFF;" width="30" height="30"/>
	<rect id="XMLID_1019_" x="215" y="190" style="fill:#FFFFFF;" width="30" height="30"/>
	<rect id="XMLID_40_" x="215" y="130" style="fill:#FFFFFF;" width="30" height="30"/>
	<rect id="XMLID_39_" x="115" y="130" style="fill:#FFFFFF;" width="30" height="30"/>
	<rect id="XMLID_38_" x="165" y="130" style="fill:#FFFFFF;" width="30" height="30"/>
	<rect id="XMLID_37_" x="65" y="130" style="fill:#FFDA44;" width="30" height="30"/>
	<rect id="XMLID_36_" x="215" y="250" style="fill:#FFFFFF;" width="30" height="30"/>
	<rect id="XMLID_35_" x="115" y="250" style="fill:#FFDA44;" width="30" height="30"/>
	<rect id="XMLID_34_" x="165" y="250" style="fill:#FFFFFF;" width="30" height="30"/>
	<rect id="XMLID_33_" x="65" y="250" style="fill:#FFFFFF;" width="30" height="30"/>
	<rect id="XMLID_32_" x="215.001" style="fill:#003778;" width="30" height="60"/>
	<rect id="XMLID_3_" x="65.002" style="fill:#003778;" width="30" height="60"/>
</g>
<g>
</g>
<g>
</g>
<g>
</g>
<g>
</g>
<g>
</g>
<g>
</g>
<g>
</g>
<g>
</g>
<g>
</g>
<g>
</g>
<g>
</g>
<g>
</g>
<g>
</g>
<g>
</g>
<g>
</g>
</svg>
