<svg xmlns="http://www.w3.org/2000/svg"  viewBox="0 0 64 64" width="128px" height="128px"><radialGradient id="rWzVOVYQkwht2wsvdHuf8a" cx="32" cy="31.5" r="31.259" gradientUnits="userSpaceOnUse"><stop offset="0" stop-color="#afeeff"/><stop offset=".193" stop-color="#bbf1ff"/><stop offset=".703" stop-color="#d7f8ff"/><stop offset="1" stop-color="#e1faff"/></radialGradient><path fill="url(#rWzVOVYQkwht2wsvdHuf8a)" d="M60,50l0.385,0c1.67,0,3.195-1.122,3.537-2.757C64.392,44.998,62.668,43,60.5,43l-7.358,0	c-1.308,0-2.499-0.941-2.629-2.243C50.363,39.261,51.534,38,53,38l4.869,0c1.451,0,2.789-0.972,3.071-2.395	C61.319,33.693,59.848,32,58,32h-8v-8h11c1.657,0,3-1.343,3-3v0c0-1.657-1.343-3-3-3h-0.894c-0.996,0-1.919-0.681-2.078-1.665	C57.824,15.082,58.785,14,60,14l0.357,0c1.308,0,2.5-0.942,2.63-2.243C63.136,10.26,61.966,9,60.5,9h-16C43.672,9,43,8.328,43,7.5	S43.672,6,44.5,6l3.857,0c1.308,0,2.5-0.942,2.63-2.243C51.136,2.26,49.966,1,48.5,1L15.643,1c-1.308,0-2.5,0.942-2.63,2.243	C12.864,4.74,14.034,6,15.5,6l4.857,0c1.308,0,2.499,0.941,2.63,2.242C23.137,9.739,21.966,11,20.5,11L6.126,11	c-1.457,0-2.804,0.975-3.083,2.405C2.669,15.313,4.14,17,5.984,17l2.844,0c2.089,0,3.955,1.527,4.153,3.607	C13.209,22.993,11.339,25,9,25c-0.086,0-3.81,0-3.81,0c-2.086,0-3.959,1.514-4.169,3.59C0.78,30.972,2.665,33,5,33h9v11l-7.869,0	c-1.451,0-2.789,0.972-3.071,2.395C2.681,48.307,4.152,50,6,50c0.603,0,2,0,3.5,0s2,1.498,2,2c0,1.105-0.895,2-2,2l-5.31,0	c-2.086,0-3.959,1.514-4.169,3.59C-0.22,59.972,1.665,62,4,62l55.811,0c1.899,0,3.857-1.507,4.142-3.385	c0.369-2.435-1.498-4.555-3.852-4.614c-0.808-0.02-1.606-0.396-1.921-1.14C57.564,51.401,58.618,50,60,50z"/><linearGradient id="rWzVOVYQkwht2wsvdHuf8b" x1="32" x2="32" y1="7.769" y2="67.21" gradientUnits="userSpaceOnUse"><stop offset="0" stop-color="#515c69"/><stop offset="1" stop-color="#5e6d7b"/></linearGradient><path fill="url(#rWzVOVYQkwht2wsvdHuf8b)" d="M18,8h28c5.523,0,10,4.477,10,10v28	c0,5.523-4.477,10-10,10H18c-5.523,0-10-4.477-10-10V18C8,12.477,12.477,8,18,8z"/><circle cx="32" cy="32" r="21" fill="#f4f3f6"/><linearGradient id="rWzVOVYQkwht2wsvdHuf8c" x1="32" x2="32" y1="7.769" y2="67.21" gradientUnits="userSpaceOnUse"><stop offset="0" stop-color="#515c69"/><stop offset="1" stop-color="#5e6d7b"/></linearGradient><circle cx="32" cy="32" r="3" fill="url(#rWzVOVYQkwht2wsvdHuf8c)"/><linearGradient id="rWzVOVYQkwht2wsvdHuf8d" x1="39.794" x2="39.794" y1="7.769" y2="67.21" gradientUnits="userSpaceOnUse"><stop offset="0" stop-color="#5e6d7b"/><stop offset=".532" stop-color="#515c69"/></linearGradient><path fill="url(#rWzVOVYQkwht2wsvdHuf8d)" d="M32.001,33c-0.346,0-0.682-0.179-0.867-0.5	c-0.276-0.479-0.112-1.09,0.366-1.366l15.588-9c0.477-0.276,1.089-0.113,1.366,0.366c0.276,0.479,0.112,1.09-0.366,1.366l-15.588,9	C32.343,32.957,32.17,33,32.001,33z"/><linearGradient id="rWzVOVYQkwht2wsvdHuf8e" x1="27.5" x2="27.5" y1="7.769" y2="67.21" gradientUnits="userSpaceOnUse"><stop offset="0" stop-color="#5e6d7b"/><stop offset=".532" stop-color="#515c69"/></linearGradient><path fill="url(#rWzVOVYQkwht2wsvdHuf8e)" d="M31.999,33	c-0.19,0-0.383-0.055-0.554-0.168l-9-6c-0.459-0.307-0.583-0.927-0.277-1.387c0.306-0.459,0.926-0.583,1.387-0.277l9,6	c0.459,0.307,0.583,0.927,0.277,1.387C32.639,32.844,32.322,33,31.999,33z"/><linearGradient id="rWzVOVYQkwht2wsvdHuf8f" x1="32" x2="32" y1="7.769" y2="67.21" gradientUnits="userSpaceOnUse"><stop offset="0" stop-color="#5e6d7b"/><stop offset=".532" stop-color="#515c69"/></linearGradient><path fill="url(#rWzVOVYQkwht2wsvdHuf8f)" d="M32,51c-0.552,0-1-0.447-1-1v-2	c0-0.553,0.448-1,1-1s1,0.447,1,1v2C33,50.553,32.552,51,32,51z"/><linearGradient id="rWzVOVYQkwht2wsvdHuf8g" x1="32" x2="32" y1="7.769" y2="67.21" gradientUnits="userSpaceOnUse"><stop offset="0" stop-color="#5e6d7b"/><stop offset=".532" stop-color="#515c69"/></linearGradient><path fill="url(#rWzVOVYQkwht2wsvdHuf8g)" d="M32,17c-0.552,0-1-0.447-1-1v-2	c0-0.553,0.448-1,1-1s1,0.447,1,1v2C33,16.553,32.552,17,32,17z"/><linearGradient id="rWzVOVYQkwht2wsvdHuf8h" x1="23.5" x2="23.5" y1="7.769" y2="67.21" gradientUnits="userSpaceOnUse"><stop offset="0" stop-color="#5e6d7b"/><stop offset=".532" stop-color="#515c69"/></linearGradient><path fill="url(#rWzVOVYQkwht2wsvdHuf8h)" d="M24.001,19.144	c-0.346,0-0.682-0.18-0.867-0.5l-1-1.732c-0.276-0.479-0.112-1.09,0.366-1.366s1.089-0.111,1.366,0.366l1,1.732	c0.276,0.479,0.112,1.09-0.366,1.366C24.342,19.101,24.17,19.144,24.001,19.144z"/><linearGradient id="rWzVOVYQkwht2wsvdHuf8i" x1="17.278" x2="17.278" y1="7.769" y2="67.21" gradientUnits="userSpaceOnUse"><stop offset="0" stop-color="#5e6d7b"/><stop offset=".532" stop-color="#515c69"/></linearGradient><path fill="url(#rWzVOVYQkwht2wsvdHuf8i)" d="M18.143,25	c-0.169,0-0.342-0.043-0.499-0.134l-1.732-1c-0.479-0.276-0.642-0.888-0.366-1.366c0.275-0.479,0.887-0.643,1.366-0.366l1.732,1	c0.479,0.276,0.642,0.888,0.366,1.366C18.824,24.821,18.488,25,18.143,25z"/><linearGradient id="rWzVOVYQkwht2wsvdHuf8j" x1="15" x2="15" y1="7.769" y2="67.21" gradientUnits="userSpaceOnUse"><stop offset="0" stop-color="#5e6d7b"/><stop offset=".532" stop-color="#515c69"/></linearGradient><path fill="url(#rWzVOVYQkwht2wsvdHuf8j)" d="M16,33h-2c-0.552,0-1-0.447-1-1	s0.448-1,1-1h2c0.552,0,1,0.447,1,1S16.552,33,16,33z"/><linearGradient id="rWzVOVYQkwht2wsvdHuf8k" x1="17.278" x2="17.278" y1="7.769" y2="67.21" gradientUnits="userSpaceOnUse"><stop offset="0" stop-color="#5e6d7b"/><stop offset=".532" stop-color="#515c69"/></linearGradient><path fill="url(#rWzVOVYQkwht2wsvdHuf8k)" d="M16.413,42c-0.346,0-0.682-0.179-0.867-0.5	c-0.276-0.479-0.112-1.09,0.366-1.366l1.732-1c0.477-0.277,1.089-0.113,1.366,0.366c0.276,0.479,0.112,1.09-0.366,1.366l-1.732,1	C16.754,41.957,16.582,42,16.413,42z"/><linearGradient id="rWzVOVYQkwht2wsvdHuf8l" x1="23.5" x2="23.5" y1="7.769" y2="67.21" gradientUnits="userSpaceOnUse"><stop offset="0" stop-color="#5e6d7b"/><stop offset=".532" stop-color="#515c69"/></linearGradient><path fill="url(#rWzVOVYQkwht2wsvdHuf8l)" d="M22.999,48.589	c-0.169,0-0.341-0.043-0.499-0.134c-0.478-0.276-0.642-0.888-0.366-1.366l1-1.732c0.276-0.478,0.886-0.644,1.366-0.366	c0.478,0.276,0.642,0.888,0.366,1.366l-1,1.732C23.681,48.409,23.345,48.589,22.999,48.589z"/><linearGradient id="rWzVOVYQkwht2wsvdHuf8m" x1="40.5" x2="40.5" y1="7.769" y2="67.21" gradientUnits="userSpaceOnUse"><stop offset="0" stop-color="#5e6d7b"/><stop offset=".532" stop-color="#515c69"/></linearGradient><path fill="url(#rWzVOVYQkwht2wsvdHuf8m)" d="M41.001,48.589	c-0.346,0-0.682-0.18-0.867-0.5l-1-1.732c-0.276-0.479-0.112-1.09,0.366-1.366c0.479-0.277,1.09-0.111,1.366,0.366l1,1.732	c0.276,0.479,0.112,1.09-0.366,1.366C41.342,48.546,41.17,48.589,41.001,48.589z"/><linearGradient id="rWzVOVYQkwht2wsvdHuf8n" x1="46.722" x2="46.722" y1="7.769" y2="67.21" gradientUnits="userSpaceOnUse"><stop offset="0" stop-color="#5e6d7b"/><stop offset=".532" stop-color="#515c69"/></linearGradient><path fill="url(#rWzVOVYQkwht2wsvdHuf8n)" d="M47.587,42	c-0.169,0-0.342-0.043-0.499-0.134l-1.732-1c-0.479-0.276-0.642-0.888-0.366-1.366c0.276-0.479,0.887-0.644,1.366-0.366l1.732,1	c0.479,0.276,0.642,0.888,0.366,1.366C48.269,41.821,47.933,42,47.587,42z"/><linearGradient id="rWzVOVYQkwht2wsvdHuf8o" x1="49" x2="49" y1="7.769" y2="67.21" gradientUnits="userSpaceOnUse"><stop offset="0" stop-color="#5e6d7b"/><stop offset=".532" stop-color="#515c69"/></linearGradient><path fill="url(#rWzVOVYQkwht2wsvdHuf8o)" d="M50,33h-2c-0.552,0-1-0.447-1-1	s0.448-1,1-1h2c0.552,0,1,0.447,1,1S50.552,33,50,33z"/><linearGradient id="rWzVOVYQkwht2wsvdHuf8p" x1="46.722" x2="46.722" y1="7.769" y2="67.21" gradientUnits="userSpaceOnUse"><stop offset="0" stop-color="#5e6d7b"/><stop offset=".532" stop-color="#515c69"/></linearGradient><path fill="url(#rWzVOVYQkwht2wsvdHuf8p)" d="M45.857,25c-0.346,0-0.682-0.179-0.867-0.5	c-0.276-0.479-0.112-1.09,0.366-1.366l1.732-1c0.477-0.276,1.089-0.113,1.366,0.366c0.276,0.479,0.112,1.09-0.366,1.366l-1.732,1	C46.199,24.957,46.027,25,45.857,25z"/><linearGradient id="rWzVOVYQkwht2wsvdHuf8q" x1="40.5" x2="40.5" y1="7.769" y2="67.21" gradientUnits="userSpaceOnUse"><stop offset="0" stop-color="#5e6d7b"/><stop offset=".532" stop-color="#515c69"/></linearGradient><path fill="url(#rWzVOVYQkwht2wsvdHuf8q)" d="M39.999,19.144	c-0.169,0-0.341-0.043-0.499-0.134c-0.478-0.276-0.642-0.888-0.366-1.366l1-1.732c0.276-0.478,0.886-0.643,1.366-0.366	c0.478,0.276,0.642,0.888,0.366,1.366l-1,1.732C40.681,18.964,40.345,19.144,39.999,19.144z"/><circle cx="32" cy="32" r="2" fill="#e99c31"/><path fill="#e99c31" d="M32,52L32,52c-0.552,0-1-0.448-1-1V29c0-0.552,0.448-1,1-1h0c0.552,0,1,0.448,1,1v22	C33,51.552,32.552,52,32,52z"/></svg>