<?xml version="1.0" encoding="iso-8859-1"?>
<!-- Generator: Adobe Illustrator 19.0.0, SVG Export Plug-In . SVG Version: 6.00 Build 0)  -->
<svg version="1.1" id="Layer_1" xmlns="http://www.w3.org/2000/svg" xmlns:xlink="http://www.w3.org/1999/xlink" x="0px" y="0px"
	 viewBox="0 0 504.123 504.123" style="enable-background:new 0 0 504.123 504.123;" xml:space="preserve">
<path style="fill:#0CC18E;" d="M429.064,177.018C429.064,79.258,349.822,0,252.054,0C154.301,0,75.059,79.258,75.059,177.018
	c0,49.451,21.638,105.614,53.035,149.323l123.975,177.782l124.006-177.814C413.452,272.864,429.064,226.438,429.064,177.018z"/>
<path style="fill:#17DD9F;" d="M252.054,0C154.301,0,75.059,79.258,75.059,177.018"/>
<path style="fill:#039176;" d="M252.069,504.123l124.006-177.814c37.368-53.445,52.988-99.872,52.988-149.291
	C429.064,79.258,349.822,0,252.054,0"/>
<path style="fill:#047F73;" d="M429.064,177.018C429.064,79.258,349.822,0,252.054,0"/>
<circle style="fill:#F44D71;" cx="252.062" cy="166.936" r="79.557"/>
<path style="fill:#FF6679;" d="M172.528,166.936c0-43.93,35.604-79.557,79.525-79.557"/>
<path style="fill:#D60949;" d="M252.054,87.387c43.922,0,79.557,35.619,79.557,79.557c0,43.922-35.627,79.525-79.557,79.525"/>
<path style="fill:#B50444;" d="M331.603,166.936c0,43.922-35.627,79.525-79.557,79.525"/>
<g>
</g>
<g>
</g>
<g>
</g>
<g>
</g>
<g>
</g>
<g>
</g>
<g>
</g>
<g>
</g>
<g>
</g>
<g>
</g>
<g>
</g>
<g>
</g>
<g>
</g>
<g>
</g>
<g>
</g>
</svg>
