<?xml version="1.0" encoding="iso-8859-1"?>
<!-- Generator: Adobe Illustrator 19.0.0, SVG Export Plug-In . SVG Version: 6.00 Build 0)  -->
<svg version="1.1" id="Layer_1" xmlns="http://www.w3.org/2000/svg" xmlns:xlink="http://www.w3.org/1999/xlink" x="0px" y="0px"
	 viewBox="0 0 512 512" style="enable-background:new 0 0 512 512;" xml:space="preserve">
<path style="fill:#4A5A67;" d="M512,256.006C512,397.402,397.394,512.004,256.004,512C114.606,512.004,0,397.402,0,256.006
	C-0.007,114.61,114.606,0,256.004,0C397.394,0,512,114.614,512,256.006z"/>
<path style="fill:#444A54;" d="M511.714,267.933C428.948,185.167,323.994,80.212,323.953,80.172
	c-18.288-19.181-43.659-31.105-71.686-31.105c-55.585,0-100.8,46.816-100.8,104.358c0,76.57,91.51,173.002,95.405,177.071
	c0.07,0.074,0.173,0.099,0.246,0.17c0.352,0.374,12.431,12.501,12.554,12.63c0.031,0.032,0.069,0.054,0.108,0.076
	c1.766,1.77,3.011,3.017,3.067,3.075c-1.82-0.09-3.651-0.178-5.486-0.267c-4.146-4.149-62.524-62.458-62.681-62.574
	c-1.361-1.82-3.429-3.074-5.879-3.074h-67.893c-3.07,0-5.826,1.874-6.949,4.733l-44.107,112c-0.905,2.297-0.612,4.893,0.78,6.934
	c0.174,0.257,54.537,54.541,89.122,89.076c29.715,12.064,62.202,18.725,96.251,18.724
	C393.395,512.004,505.484,403.789,511.714,267.933z"/>
<g>
	<path style="fill:#F4F6F9;" d="M252.267,332.8h0.007c2.042,0,3.988-0.838,5.396-2.311c3.893-4.083,95.397-100.854,95.397-177.063
		c-0.001-57.542-45.217-104.358-100.801-104.358s-100.8,46.816-100.8,104.358c0,76.57,91.51,173.002,95.404,177.071
		C248.285,331.969,250.232,332.8,252.267,332.8z M252.267,64c47.345,0,85.867,40.115,85.867,89.425
		c0,60.145-66.274,138.877-85.874,160.847C232.637,292.368,166.4,213.909,166.4,153.425C166.4,104.115,204.922,64,252.267,64z"/>
	<path style="fill:#F4F6F9;" d="M300.8,157.333c0-26.761-21.773-48.533-48.533-48.533s-48.533,21.773-48.533,48.533
		s21.773,48.533,48.533,48.533S300.8,184.094,300.8,157.333z M218.667,157.333c0-18.528,15.072-33.6,33.6-33.6
		s33.6,15.072,33.6,33.6s-15.072,33.6-33.6,33.6S218.667,175.861,218.667,157.333z"/>
	<path style="fill:#F4F6F9;" d="M441.966,396.835l-52.339-112c-1.232-2.625-3.865-4.302-6.767-4.302h-67.126
		c-4.127,0-7.467,3.34-7.467,7.467c0,4.127,3.34,7.467,7.467,7.467h62.373l45.361,97.067h-48.306
		c-2.03-17.938-14.685-30.432-37.743-37.195c-21.78-6.38-51.851-7.817-83.694-9.333c-11.674-0.561-23.712-1.131-35.853-1.969
		c-15.327-1.05-34.978-4.958-41.54-17.602c-5.587-10.766-0.418-24.556,2.627-30.967h9.841c4.127,0,7.467-3.34,7.467-7.467
		s-3.34-7.467-7.467-7.467h-67.893c-3.07,0-5.826,1.874-6.949,4.733l-44.108,112c-0.905,2.297-0.612,4.893,0.78,6.934
		c1.387,2.042,3.698,3.266,6.171,3.266h358.4c2.553,0,4.929-1.306,6.3-3.456S443.045,399.154,441.966,396.835z M125.989,295.467
		H162.8c-3.599,9.859-6.589,24.548,0.238,37.771c7.809,15.137,25.915,23.786,53.812,25.703c12.243,0.838,24.39,1.414,36.166,1.977
		c30.924,1.481,60.134,2.873,80.201,8.75c16.502,4.838,24.825,11.914,26.767,22.867H87.766L125.989,295.467z"/>
</g>
<g>
</g>
<g>
</g>
<g>
</g>
<g>
</g>
<g>
</g>
<g>
</g>
<g>
</g>
<g>
</g>
<g>
</g>
<g>
</g>
<g>
</g>
<g>
</g>
<g>
</g>
<g>
</g>
<g>
</g>
</svg>
