<?xml version="1.0" encoding="iso-8859-1"?>
<!-- Generator: Adobe Illustrator 19.0.0, SVG Export Plug-In . SVG Version: 6.00 Build 0)  -->
<svg version="1.1" id="Layer_1" xmlns="http://www.w3.org/2000/svg" xmlns:xlink="http://www.w3.org/1999/xlink" x="0px" y="0px"
	 viewBox="0 0 512.001 512.001" style="enable-background:new 0 0 512.001 512.001;" xml:space="preserve">
<g>
	<g>
		<path d="M256.001,0C114.51,0,0,114.498,0,256.001c0,141.491,114.496,256.001,256.001,256.001
			c141.492,0,256.001-114.496,256.001-256.001C512,114.509,397.504,0,256.001,0z M239.353,49.573
			c0-9.194,7.454-16.647,16.647-16.647c9.194,0,16.647,7.454,16.647,16.647v24.416c0,9.194-7.454,16.647-16.647,16.647
			c-9.194,0-16.647-7.454-16.647-16.647V49.573z M145.018,62.663c7.962-4.599,18.145-1.869,22.74,6.093l12.208,21.146
			c4.597,7.962,1.869,18.143-6.093,22.74c-7.957,4.595-18.141,1.873-22.74-6.093l-12.208-21.146
			C134.327,77.442,137.055,67.26,145.018,62.663z M34.035,254.891c0-9.194,7.454-16.647,16.647-16.647h24.416
			c9.194,0,16.647,7.454,16.647,16.647s-7.454,16.647-16.647,16.647H50.682C41.488,271.538,34.035,264.085,34.035,254.891z
			 M107.658,359.758l-21.146,12.208c-7.957,4.595-18.141,1.873-22.74-6.093c-4.597-7.962-1.869-18.143,6.093-22.74l21.146-12.208
			c7.963-4.598,18.145-1.87,22.74,6.093C118.349,344.98,115.621,355.161,107.658,359.758z M113.752,172.763
			c-4.598,7.964-14.782,10.689-22.74,6.093l-21.146-12.208c-7.962-4.597-10.69-14.778-6.093-22.74
			c4.596-7.963,14.776-10.693,22.74-6.093l21.146,12.208C115.621,154.62,118.349,164.8,113.752,172.763z M179.966,419.88
			l-12.208,21.146c-4.598,7.964-14.782,10.689-22.74,6.093c-7.962-4.597-10.69-14.779-6.093-22.74l12.208-21.146
			c4.597-7.962,14.777-10.692,22.74-6.093C181.835,401.736,184.563,411.918,179.966,419.88z M272.648,460.209
			c0,9.194-7.454,16.647-16.647,16.647c-9.194,0-16.647-7.454-16.647-16.647v-24.416c0-9.194,7.454-16.647,16.647-16.647
			c9.194,0,16.647,7.454,16.647,16.647V460.209z M256.001,305.943c-27.583,0-49.942-22.36-49.942-49.942
			c0-1.407,0.073-2.797,0.186-4.175l-64.399-38.988c-10.487-6.348-13.842-19.997-7.492-30.484
			c6.348-10.487,19.997-13.842,30.484-7.492l64.394,38.985c7.739-4.924,16.916-7.789,26.769-7.789c2.163,0,4.291,0.153,6.382,0.42
			l69.212-136.908c4.149-8.205,14.166-11.493,22.367-7.346c8.206,4.149,11.493,14.162,7.346,22.367l-69.214,136.913
			c8.572,8.967,13.848,21.112,13.848,34.497C305.943,283.583,283.582,305.943,256.001,305.943z M366.983,447.118
			c-7.963,4.597-18.145,1.869-22.74-6.093l-12.208-21.146c-4.598-7.962-1.87-18.143,6.093-22.74
			c7.962-4.597,18.143-1.87,22.74,6.093l12.208,21.146C377.673,432.34,374.945,442.521,366.983,447.118z M404.342,150.023
			l21.146-12.208c7.962-4.596,18.143-1.87,22.74,6.093c4.598,7.962,1.87,18.143-6.093,22.74l-21.146,12.208
			c-7.963,4.597-18.145,1.869-22.74-6.093C393.651,164.8,396.379,154.62,404.342,150.023z M448.228,365.873
			c-4.6,7.967-14.785,10.688-22.74,6.093l-21.146-12.208c-7.963-4.597-10.691-14.778-6.093-22.74
			c4.598-7.962,14.777-10.692,22.74-6.093l21.146,12.208C450.097,347.73,452.825,357.91,448.228,365.873z M461.319,271.538h-24.416
			c-9.194,0-16.647-7.454-16.647-16.647s7.454-16.647,16.647-16.647h24.416c9.194,0,16.647,7.454,16.647,16.647
			S470.512,271.538,461.319,271.538z"/>
	</g>
</g>
<g>
</g>
<g>
</g>
<g>
</g>
<g>
</g>
<g>
</g>
<g>
</g>
<g>
</g>
<g>
</g>
<g>
</g>
<g>
</g>
<g>
</g>
<g>
</g>
<g>
</g>
<g>
</g>
<g>
</g>
</svg>
