<?xml version="1.0" encoding="iso-8859-1"?>
<!-- Generator: Adobe Illustrator 19.0.0, SVG Export Plug-In . SVG Version: 6.00 Build 0)  -->
<svg version="1.1" id="Layer_1" xmlns="http://www.w3.org/2000/svg" xmlns:xlink="http://www.w3.org/1999/xlink" x="0px" y="0px"
	 viewBox="0 0 512.001 512.001" style="enable-background:new 0 0 512.001 512.001;" xml:space="preserve">
<path style="fill:#CC7300;" d="M437.02,74.981C388.668,26.629,324.38,0,256.001,0S123.333,26.629,74.981,74.981S0,187.62,0,256.001
	s26.629,132.668,74.981,181.02s112.64,74.981,181.02,74.981s132.668-26.629,181.02-74.981s74.981-112.64,74.981-181.02
	S485.372,123.333,437.02,74.981z"/>
<path style="fill:#AA5F00;" d="M437.02,74.981C388.786,26.748,324.694,0.137,256.501,0.007v511.988
	c68.192-0.13,132.285-26.741,180.519-74.974c48.352-48.352,74.981-112.64,74.981-181.02S485.372,123.333,437.02,74.981z"/>
<path style="fill:#653902;" d="M354.744,157.256c-26.376-26.375-61.443-40.9-98.745-40.9s-72.369,14.525-98.744,40.9
	c-26.375,26.376-40.902,61.443-40.902,98.744s14.525,72.368,40.902,98.744s61.443,40.902,98.744,40.902s72.369-14.525,98.745-40.902
	c26.376-26.376,40.9-61.443,40.9-98.744S381.12,183.632,354.744,157.256z"/>
<path style="fill:#7D4702;" d="M256.001,116.355c-37.3,0-72.369,14.525-98.744,40.9c-26.375,26.376-40.902,61.443-40.902,98.744
	s14.525,72.368,40.902,98.744c26.375,26.375,61.443,40.9,98.744,40.9V116.355z"/>
<g>
	<path style="fill:#FFB555;" d="M256.001,90.636c-9.194,0-16.647-7.454-16.647-16.647V49.573c0-9.194,7.454-16.647,16.647-16.647
		c9.194,0,16.647,7.454,16.647,16.647v24.416C272.648,83.183,265.194,90.636,256.001,90.636z"/>
	<path style="fill:#FFB555;" d="M256.001,476.856c-9.194,0-16.647-7.454-16.647-16.647v-24.416c0-9.194,7.454-16.647,16.647-16.647
		c9.194,0,16.647,7.454,16.647,16.647v24.416C272.648,469.403,265.194,476.856,256.001,476.856z"/>
	<path style="fill:#FFB555;" d="M165.565,114.875c-5.754,0-11.349-2.985-14.432-8.326l-12.208-21.146
		c-4.597-7.962-1.869-18.143,6.093-22.74c7.962-4.599,18.145-1.869,22.74,6.093l12.208,21.146c4.597,7.962,1.869,18.143-6.093,22.74
		C171.252,114.156,168.389,114.875,165.565,114.875z"/>
</g>
<path style="fill:#FF9711;" d="M358.674,449.351c-5.753,0-11.349-2.985-14.432-8.326l-12.208-21.146
	c-4.598-7.962-1.87-18.143,6.093-22.74c7.962-4.597,18.143-1.87,22.74,6.093l12.208,21.146c4.598,7.962,1.87,18.143-6.093,22.74
	C364.361,448.632,361.499,449.351,358.674,449.351z"/>
<path style="fill:#FFB555;" d="M99.318,181.089c-2.825,0-5.687-0.719-8.308-2.233l-21.146-12.208
	c-7.962-4.597-10.69-14.778-6.093-22.74c4.596-7.963,14.776-10.693,22.74-6.093l21.146,12.208c7.962,4.597,10.69,14.778,6.093,22.74
	C110.669,178.104,105.072,181.089,99.318,181.089z"/>
<path style="fill:#FF9711;" d="M433.796,374.199c-2.825,0-5.687-0.719-8.308-2.233l-21.146-12.208
	c-7.963-4.597-10.691-14.778-6.093-22.74s14.777-10.692,22.74-6.093l21.146,12.208c7.963,4.597,10.691,14.778,6.093,22.74
	C445.144,371.214,439.548,374.199,433.796,374.199z"/>
<path style="fill:#FFB555;" d="M75.099,271.538H50.682c-9.194,0-16.647-7.454-16.647-16.647s7.454-16.647,16.647-16.647h24.416
	c9.194,0,16.647,7.454,16.647,16.647S84.292,271.538,75.099,271.538z"/>
<path style="fill:#FF9711;" d="M461.319,271.538h-24.416c-9.194,0-16.647-7.454-16.647-16.647s7.454-16.647,16.647-16.647h24.416
	c9.194,0,16.647,7.454,16.647,16.647S470.512,271.538,461.319,271.538z"/>
<path style="fill:#FFB555;" d="M78.205,374.199c-5.754,0-11.349-2.985-14.432-8.326c-4.597-7.962-1.869-18.143,6.093-22.74
	l21.146-12.208c7.963-4.598,18.145-1.87,22.74,6.093c4.597,7.962,1.869,18.143-6.093,22.74l-21.146,12.208
	C83.892,373.48,81.029,374.199,78.205,374.199z"/>
<path style="fill:#FF9711;" d="M412.68,181.089c-5.753,0-11.349-2.985-14.432-8.326c-4.598-7.962-1.87-18.143,6.093-22.74
	l21.146-12.208c7.962-4.596,18.143-1.87,22.74,6.093c4.598,7.962,1.87,18.143-6.093,22.74l-21.146,12.208
	C418.367,180.37,415.505,181.089,412.68,181.089z"/>
<path style="fill:#FFB555;" d="M153.325,449.351c-2.825,0-5.687-0.719-8.308-2.233c-7.962-4.597-10.69-14.778-6.093-22.74
	l12.208-21.146c4.597-7.962,14.777-10.692,22.74-6.093c7.962,4.597,10.69,14.778,6.093,22.74l-12.208,21.146
	C164.675,446.366,159.078,449.351,153.325,449.351z"/>
<path style="fill:#FF9711;" d="M255.987,272.651c-2.526,0-5.089-0.577-7.498-1.795c-8.205-4.149-11.493-14.163-7.346-22.367
	l90.451-178.921c4.149-8.205,14.166-11.493,22.367-7.346c8.206,4.149,11.493,14.163,7.346,22.367l-90.451,178.921
	C267.927,269.307,262.067,272.651,255.987,272.651z"/>
<path style="fill:#FFB555;" d="M255.978,278.2c-3.915,0-7.881-1.037-11.475-3.212l-102.659-62.15
	c-10.487-6.348-13.842-19.997-7.492-30.484c6.348-10.487,19.997-13.842,30.484-7.492l102.659,62.15
	c10.487,6.348,13.842,19.997,7.494,30.484C270.815,274.388,263.489,278.2,255.978,278.2z"/>
<circle style="fill:#AA5F00;" cx="256.004" cy="256.004" r="49.942"/>
<g>
</g>
<g>
</g>
<g>
</g>
<g>
</g>
<g>
</g>
<g>
</g>
<g>
</g>
<g>
</g>
<g>
</g>
<g>
</g>
<g>
</g>
<g>
</g>
<g>
</g>
<g>
</g>
<g>
</g>
</svg>
